<svg width="684" height="1024" viewBox="0 0 684 1024" fill="none" xmlns="http://www.w3.org/2000/svg">
<path d="M125.879 71.912V75.521H130.433V77.384H125.879V81.065H131.657V83H123.449V69.986H131.657V71.912H125.879ZM147.915 69.986V83H145.782V74.594C145.782 74.258 145.8 73.895 145.836 73.505L141.903 80.894C141.717 81.248 141.432 81.425 141.048 81.425H140.706C140.322 81.425 140.037 81.248 139.851 80.894L135.873 73.478C135.891 73.676 135.906 73.871 135.918 74.063C135.93 74.255 135.936 74.432 135.936 74.594V83H133.803V69.986H135.63C135.738 69.986 135.831 69.989 135.909 69.995C135.987 70.001 136.056 70.016 136.116 70.04C136.182 70.064 136.239 70.103 136.287 70.157C136.341 70.211 136.392 70.283 136.44 70.373L140.337 77.6C140.439 77.792 140.532 77.99 140.616 78.194C140.706 78.398 140.793 78.608 140.877 78.824C140.961 78.602 141.048 78.389 141.138 78.185C141.228 77.975 141.324 77.774 141.426 77.582L145.269 70.373C145.317 70.283 145.368 70.211 145.422 70.157C145.476 70.103 145.533 70.064 145.593 70.04C145.659 70.016 145.731 70.001 145.809 69.995C145.887 69.989 145.98 69.986 146.088 69.986H147.915ZM157.748 72.353C157.676 72.479 157.598 72.572 157.514 72.632C157.436 72.686 157.337 72.713 157.217 72.713C157.091 72.713 156.953 72.668 156.803 72.578C156.659 72.482 156.485 72.377 156.281 72.263C156.077 72.149 155.837 72.047 155.561 71.957C155.291 71.861 154.97 71.813 154.598 71.813C154.262 71.813 153.968 71.855 153.716 71.939C153.464 72.017 153.251 72.128 153.077 72.272C152.909 72.416 152.783 72.59 152.699 72.794C152.615 72.992 152.573 73.211 152.573 73.451C152.573 73.757 152.657 74.012 152.825 74.216C152.999 74.42 153.227 74.594 153.509 74.738C153.791 74.882 154.112 75.011 154.472 75.125C154.832 75.239 155.201 75.362 155.579 75.494C155.957 75.62 156.326 75.77 156.686 75.944C157.046 76.112 157.367 76.328 157.649 76.592C157.931 76.85 158.156 77.168 158.324 77.546C158.498 77.924 158.585 78.383 158.585 78.923C158.585 79.511 158.483 80.063 158.279 80.579C158.081 81.089 157.787 81.536 157.397 81.92C157.013 82.298 156.542 82.598 155.984 82.82C155.426 83.036 154.787 83.144 154.067 83.144C153.653 83.144 153.245 83.102 152.843 83.018C152.441 82.94 152.054 82.826 151.682 82.676C151.316 82.526 150.971 82.346 150.647 82.136C150.323 81.926 150.035 81.692 149.783 81.434L150.494 80.273C150.554 80.189 150.632 80.12 150.728 80.066C150.824 80.006 150.926 79.976 151.034 79.976C151.184 79.976 151.346 80.039 151.52 80.165C151.694 80.285 151.901 80.42 152.141 80.57C152.381 80.72 152.66 80.858 152.978 80.984C153.302 81.104 153.689 81.164 154.139 81.164C154.829 81.164 155.363 81.002 155.741 80.678C156.119 80.348 156.308 79.877 156.308 79.265C156.308 78.923 156.221 78.644 156.047 78.428C155.879 78.212 155.654 78.032 155.372 77.888C155.09 77.738 154.769 77.612 154.409 77.51C154.049 77.408 153.683 77.297 153.311 77.177C152.939 77.057 152.573 76.913 152.213 76.745C151.853 76.577 151.532 76.358 151.25 76.088C150.968 75.818 150.74 75.482 150.566 75.08C150.398 74.672 150.314 74.171 150.314 73.577C150.314 73.103 150.407 72.641 150.593 72.191C150.785 71.741 151.061 71.342 151.421 70.994C151.781 70.646 152.225 70.367 152.753 70.157C153.281 69.947 153.887 69.842 154.571 69.842C155.339 69.842 156.047 69.962 156.695 70.202C157.343 70.442 157.895 70.778 158.351 71.21L157.748 72.353ZM169.943 81.11C170.393 81.11 170.771 81.056 171.077 80.948C171.383 80.84 171.626 80.696 171.806 80.516C171.992 80.336 172.124 80.126 172.202 79.886C172.286 79.646 172.328 79.391 172.328 79.121C172.328 78.839 172.283 78.587 172.193 78.365C172.103 78.137 171.962 77.945 171.77 77.789C171.578 77.627 171.329 77.504 171.023 77.42C170.723 77.336 170.36 77.294 169.934 77.294H167.495V81.11H169.943ZM167.495 71.858V75.62H169.421C170.249 75.62 170.873 75.47 171.293 75.17C171.719 74.87 171.932 74.393 171.932 73.739C171.932 73.061 171.74 72.578 171.356 72.29C170.972 72.002 170.372 71.858 169.556 71.858H167.495ZM169.556 69.986C170.408 69.986 171.137 70.067 171.743 70.229C172.349 70.391 172.844 70.622 173.228 70.922C173.618 71.222 173.903 71.585 174.083 72.011C174.263 72.437 174.353 72.917 174.353 73.451C174.353 73.757 174.308 74.051 174.218 74.333C174.128 74.609 173.987 74.87 173.795 75.116C173.609 75.356 173.369 75.575 173.075 75.773C172.787 75.971 172.442 76.139 172.04 76.277C173.828 76.679 174.722 77.645 174.722 79.175C174.722 79.727 174.617 80.237 174.407 80.705C174.197 81.173 173.891 81.578 173.489 81.92C173.087 82.256 172.592 82.52 172.004 82.712C171.416 82.904 170.744 83 169.988 83H165.074V69.986H169.556ZM189.333 76.493C189.333 77.447 189.174 78.332 188.856 79.148C188.544 79.958 188.1 80.66 187.524 81.254C186.948 81.848 186.255 82.313 185.445 82.649C184.635 82.979 183.735 83.144 182.745 83.144C181.761 83.144 180.864 82.979 180.054 82.649C179.244 82.313 178.548 81.848 177.966 81.254C177.39 80.66 176.943 79.958 176.625 79.148C176.307 78.332 176.148 77.447 176.148 76.493C176.148 75.539 176.307 74.657 176.625 73.847C176.943 73.031 177.39 72.326 177.966 71.732C178.548 71.138 179.244 70.676 180.054 70.346C180.864 70.01 181.761 69.842 182.745 69.842C183.405 69.842 184.026 69.92 184.608 70.076C185.19 70.226 185.724 70.442 186.21 70.724C186.696 71 187.131 71.339 187.515 71.741C187.905 72.137 188.235 72.581 188.505 73.073C188.775 73.565 188.979 74.099 189.117 74.675C189.261 75.251 189.333 75.857 189.333 76.493ZM186.858 76.493C186.858 75.779 186.762 75.14 186.57 74.576C186.378 74.006 186.105 73.523 185.751 73.127C185.397 72.731 184.965 72.428 184.455 72.218C183.951 72.008 183.381 71.903 182.745 71.903C182.109 71.903 181.536 72.008 181.026 72.218C180.522 72.428 180.09 72.731 179.73 73.127C179.376 73.523 179.103 74.006 178.911 74.576C178.719 75.14 178.623 75.779 178.623 76.493C178.623 77.207 178.719 77.849 178.911 78.419C179.103 78.983 179.376 79.463 179.73 79.859C180.09 80.249 180.522 80.549 181.026 80.759C181.536 80.969 182.109 81.074 182.745 81.074C183.381 81.074 183.951 80.969 184.455 80.759C184.965 80.549 185.397 80.249 185.751 79.859C186.105 79.463 186.378 78.983 186.57 78.419C186.762 77.849 186.858 77.207 186.858 76.493ZM197.93 78.086L196.346 73.757C196.268 73.565 196.187 73.337 196.103 73.073C196.019 72.809 195.935 72.524 195.851 72.218C195.773 72.524 195.692 72.812 195.608 73.082C195.524 73.346 195.443 73.577 195.365 73.775L193.79 78.086H197.93ZM202.205 83H200.333C200.123 83 199.952 82.949 199.82 82.847C199.688 82.739 199.589 82.607 199.523 82.451L198.551 79.796H193.16L192.188 82.451C192.14 82.589 192.047 82.715 191.909 82.829C191.771 82.943 191.6 83 191.396 83H189.506L194.627 69.986H197.093L202.205 83ZM207.486 76.178C207.942 76.178 208.338 76.121 208.674 76.007C209.016 75.893 209.295 75.737 209.511 75.539C209.733 75.335 209.898 75.095 210.006 74.819C210.114 74.543 210.168 74.24 210.168 73.91C210.168 73.25 209.949 72.743 209.511 72.389C209.079 72.035 208.416 71.858 207.522 71.858H205.974V76.178H207.486ZM213.714 83H211.527C211.113 83 210.813 82.838 210.627 82.514L207.891 78.347C207.789 78.191 207.675 78.08 207.549 78.014C207.429 77.948 207.249 77.915 207.009 77.915H205.974V83H203.553V69.986H207.522C208.404 69.986 209.16 70.079 209.79 70.265C210.426 70.445 210.945 70.7 211.347 71.03C211.755 71.36 212.055 71.756 212.247 72.218C212.439 72.674 212.535 73.178 212.535 73.73C212.535 74.168 212.469 74.582 212.337 74.972C212.211 75.362 212.025 75.716 211.779 76.034C211.539 76.352 211.239 76.631 210.879 76.871C210.525 77.111 210.12 77.3 209.664 77.438C209.82 77.528 209.964 77.636 210.096 77.762C210.228 77.882 210.348 78.026 210.456 78.194L213.714 83ZM226.675 76.493C226.675 77.447 226.516 78.323 226.198 79.121C225.88 79.919 225.433 80.606 224.857 81.182C224.281 81.758 223.588 82.205 222.778 82.523C221.968 82.841 221.068 83 220.078 83H215.119V69.986H220.078C221.068 69.986 221.968 70.148 222.778 70.472C223.588 70.79 224.281 71.237 224.857 71.813C225.433 72.383 225.88 73.067 226.198 73.865C226.516 74.663 226.675 75.539 226.675 76.493ZM224.191 76.493C224.191 75.779 224.095 75.14 223.903 74.576C223.717 74.006 223.444 73.526 223.084 73.136C222.73 72.74 222.298 72.437 221.788 72.227C221.284 72.017 220.714 71.912 220.078 71.912H217.549V81.074H220.078C220.714 81.074 221.284 80.969 221.788 80.759C222.298 80.549 222.73 80.249 223.084 79.859C223.444 79.463 223.717 78.983 223.903 78.419C224.095 77.849 224.191 77.207 224.191 76.493Z" fill="white"/>
<rect width="601" height="1024" fill="#586BE9"/>
<path d="M121.879 71.912V75.521H126.433V77.384H121.879V81.065H127.657V83H119.449V69.986H127.657V71.912H121.879ZM143.915 69.986V83H141.782V74.594C141.782 74.258 141.8 73.895 141.836 73.505L137.903 80.894C137.717 81.248 137.432 81.425 137.048 81.425H136.706C136.322 81.425 136.037 81.248 135.851 80.894L131.873 73.478C131.891 73.676 131.906 73.871 131.918 74.063C131.93 74.255 131.936 74.432 131.936 74.594V83H129.803V69.986H131.63C131.738 69.986 131.831 69.989 131.909 69.995C131.987 70.001 132.056 70.016 132.116 70.04C132.182 70.064 132.239 70.103 132.287 70.157C132.341 70.211 132.392 70.283 132.44 70.373L136.337 77.6C136.439 77.792 136.532 77.99 136.616 78.194C136.706 78.398 136.793 78.608 136.877 78.824C136.961 78.602 137.048 78.389 137.138 78.185C137.228 77.975 137.324 77.774 137.426 77.582L141.269 70.373C141.317 70.283 141.368 70.211 141.422 70.157C141.476 70.103 141.533 70.064 141.593 70.04C141.659 70.016 141.731 70.001 141.809 69.995C141.887 69.989 141.98 69.986 142.088 69.986H143.915ZM153.748 72.353C153.676 72.479 153.598 72.572 153.514 72.632C153.436 72.686 153.337 72.713 153.217 72.713C153.091 72.713 152.953 72.668 152.803 72.578C152.659 72.482 152.485 72.377 152.281 72.263C152.077 72.149 151.837 72.047 151.561 71.957C151.291 71.861 150.97 71.813 150.598 71.813C150.262 71.813 149.968 71.855 149.716 71.939C149.464 72.017 149.251 72.128 149.077 72.272C148.909 72.416 148.783 72.59 148.699 72.794C148.615 72.992 148.573 73.211 148.573 73.451C148.573 73.757 148.657 74.012 148.825 74.216C148.999 74.42 149.227 74.594 149.509 74.738C149.791 74.882 150.112 75.011 150.472 75.125C150.832 75.239 151.201 75.362 151.579 75.494C151.957 75.62 152.326 75.77 152.686 75.944C153.046 76.112 153.367 76.328 153.649 76.592C153.931 76.85 154.156 77.168 154.324 77.546C154.498 77.924 154.585 78.383 154.585 78.923C154.585 79.511 154.483 80.063 154.279 80.579C154.081 81.089 153.787 81.536 153.397 81.92C153.013 82.298 152.542 82.598 151.984 82.82C151.426 83.036 150.787 83.144 150.067 83.144C149.653 83.144 149.245 83.102 148.843 83.018C148.441 82.94 148.054 82.826 147.682 82.676C147.316 82.526 146.971 82.346 146.647 82.136C146.323 81.926 146.035 81.692 145.783 81.434L146.494 80.273C146.554 80.189 146.632 80.12 146.728 80.066C146.824 80.006 146.926 79.976 147.034 79.976C147.184 79.976 147.346 80.039 147.52 80.165C147.694 80.285 147.901 80.42 148.141 80.57C148.381 80.72 148.66 80.858 148.978 80.984C149.302 81.104 149.689 81.164 150.139 81.164C150.829 81.164 151.363 81.002 151.741 80.678C152.119 80.348 152.308 79.877 152.308 79.265C152.308 78.923 152.221 78.644 152.047 78.428C151.879 78.212 151.654 78.032 151.372 77.888C151.09 77.738 150.769 77.612 150.409 77.51C150.049 77.408 149.683 77.297 149.311 77.177C148.939 77.057 148.573 76.913 148.213 76.745C147.853 76.577 147.532 76.358 147.25 76.088C146.968 75.818 146.74 75.482 146.566 75.08C146.398 74.672 146.314 74.171 146.314 73.577C146.314 73.103 146.407 72.641 146.593 72.191C146.785 71.741 147.061 71.342 147.421 70.994C147.781 70.646 148.225 70.367 148.753 70.157C149.281 69.947 149.887 69.842 150.571 69.842C151.339 69.842 152.047 69.962 152.695 70.202C153.343 70.442 153.895 70.778 154.351 71.21L153.748 72.353ZM165.943 81.11C166.393 81.11 166.771 81.056 167.077 80.948C167.383 80.84 167.626 80.696 167.806 80.516C167.992 80.336 168.124 80.126 168.202 79.886C168.286 79.646 168.328 79.391 168.328 79.121C168.328 78.839 168.283 78.587 168.193 78.365C168.103 78.137 167.962 77.945 167.77 77.789C167.578 77.627 167.329 77.504 167.023 77.42C166.723 77.336 166.36 77.294 165.934 77.294H163.495V81.11H165.943ZM163.495 71.858V75.62H165.421C166.249 75.62 166.873 75.47 167.293 75.17C167.719 74.87 167.932 74.393 167.932 73.739C167.932 73.061 167.74 72.578 167.356 72.29C166.972 72.002 166.372 71.858 165.556 71.858H163.495ZM165.556 69.986C166.408 69.986 167.137 70.067 167.743 70.229C168.349 70.391 168.844 70.622 169.228 70.922C169.618 71.222 169.903 71.585 170.083 72.011C170.263 72.437 170.353 72.917 170.353 73.451C170.353 73.757 170.308 74.051 170.218 74.333C170.128 74.609 169.987 74.87 169.795 75.116C169.609 75.356 169.369 75.575 169.075 75.773C168.787 75.971 168.442 76.139 168.04 76.277C169.828 76.679 170.722 77.645 170.722 79.175C170.722 79.727 170.617 80.237 170.407 80.705C170.197 81.173 169.891 81.578 169.489 81.92C169.087 82.256 168.592 82.52 168.004 82.712C167.416 82.904 166.744 83 165.988 83H161.074V69.986H165.556ZM185.333 76.493C185.333 77.447 185.174 78.332 184.856 79.148C184.544 79.958 184.1 80.66 183.524 81.254C182.948 81.848 182.255 82.313 181.445 82.649C180.635 82.979 179.735 83.144 178.745 83.144C177.761 83.144 176.864 82.979 176.054 82.649C175.244 82.313 174.548 81.848 173.966 81.254C173.39 80.66 172.943 79.958 172.625 79.148C172.307 78.332 172.148 77.447 172.148 76.493C172.148 75.539 172.307 74.657 172.625 73.847C172.943 73.031 173.39 72.326 173.966 71.732C174.548 71.138 175.244 70.676 176.054 70.346C176.864 70.01 177.761 69.842 178.745 69.842C179.405 69.842 180.026 69.92 180.608 70.076C181.19 70.226 181.724 70.442 182.21 70.724C182.696 71 183.131 71.339 183.515 71.741C183.905 72.137 184.235 72.581 184.505 73.073C184.775 73.565 184.979 74.099 185.117 74.675C185.261 75.251 185.333 75.857 185.333 76.493ZM182.858 76.493C182.858 75.779 182.762 75.14 182.57 74.576C182.378 74.006 182.105 73.523 181.751 73.127C181.397 72.731 180.965 72.428 180.455 72.218C179.951 72.008 179.381 71.903 178.745 71.903C178.109 71.903 177.536 72.008 177.026 72.218C176.522 72.428 176.09 72.731 175.73 73.127C175.376 73.523 175.103 74.006 174.911 74.576C174.719 75.14 174.623 75.779 174.623 76.493C174.623 77.207 174.719 77.849 174.911 78.419C175.103 78.983 175.376 79.463 175.73 79.859C176.09 80.249 176.522 80.549 177.026 80.759C177.536 80.969 178.109 81.074 178.745 81.074C179.381 81.074 179.951 80.969 180.455 80.759C180.965 80.549 181.397 80.249 181.751 79.859C182.105 79.463 182.378 78.983 182.57 78.419C182.762 77.849 182.858 77.207 182.858 76.493ZM193.93 78.086L192.346 73.757C192.268 73.565 192.187 73.337 192.103 73.073C192.019 72.809 191.935 72.524 191.851 72.218C191.773 72.524 191.692 72.812 191.608 73.082C191.524 73.346 191.443 73.577 191.365 73.775L189.79 78.086H193.93ZM198.205 83H196.333C196.123 83 195.952 82.949 195.82 82.847C195.688 82.739 195.589 82.607 195.523 82.451L194.551 79.796H189.16L188.188 82.451C188.14 82.589 188.047 82.715 187.909 82.829C187.771 82.943 187.6 83 187.396 83H185.506L190.627 69.986H193.093L198.205 83ZM203.486 76.178C203.942 76.178 204.338 76.121 204.674 76.007C205.016 75.893 205.295 75.737 205.511 75.539C205.733 75.335 205.898 75.095 206.006 74.819C206.114 74.543 206.168 74.24 206.168 73.91C206.168 73.25 205.949 72.743 205.511 72.389C205.079 72.035 204.416 71.858 203.522 71.858H201.974V76.178H203.486ZM209.714 83H207.527C207.113 83 206.813 82.838 206.627 82.514L203.891 78.347C203.789 78.191 203.675 78.08 203.549 78.014C203.429 77.948 203.249 77.915 203.009 77.915H201.974V83H199.553V69.986H203.522C204.404 69.986 205.16 70.079 205.79 70.265C206.426 70.445 206.945 70.7 207.347 71.03C207.755 71.36 208.055 71.756 208.247 72.218C208.439 72.674 208.535 73.178 208.535 73.73C208.535 74.168 208.469 74.582 208.337 74.972C208.211 75.362 208.025 75.716 207.779 76.034C207.539 76.352 207.239 76.631 206.879 76.871C206.525 77.111 206.12 77.3 205.664 77.438C205.82 77.528 205.964 77.636 206.096 77.762C206.228 77.882 206.348 78.026 206.456 78.194L209.714 83ZM222.675 76.493C222.675 77.447 222.516 78.323 222.198 79.121C221.88 79.919 221.433 80.606 220.857 81.182C220.281 81.758 219.588 82.205 218.778 82.523C217.968 82.841 217.068 83 216.078 83H211.119V69.986H216.078C217.068 69.986 217.968 70.148 218.778 70.472C219.588 70.79 220.281 71.237 220.857 71.813C221.433 72.383 221.88 73.067 222.198 73.865C222.516 74.663 222.675 75.539 222.675 76.493ZM220.191 76.493C220.191 75.779 220.095 75.14 219.903 74.576C219.717 74.006 219.444 73.526 219.084 73.136C218.73 72.74 218.298 72.437 217.788 72.227C217.284 72.017 216.714 71.912 216.078 71.912H213.549V81.074H216.078C216.714 81.074 217.284 80.969 217.788 80.759C218.298 80.549 218.73 80.249 219.084 79.859C219.444 79.463 219.717 78.983 219.903 78.419C220.095 77.849 220.191 77.207 220.191 76.493Z" fill="white"/>
<circle opacity="0.4" cx="500.5" cy="930.5" r="183.5" fill="white"/>
<path opacity="0.2" d="M473 1084C473 1150.27 415.692 1204 345 1204C274.308 1204 217 1150.27 217 1084C217 1017.73 274.308 964 345 964C415.692 964 473 1017.73 473 1084Z" fill="white"/>
<path opacity="0.6" d="M269 726C269 811.604 200.052 881 115 881C29.9481 881 -39 811.604 -39 726C-39 640.396 29.9481 571 115 571C200.052 571 269 640.396 269 726Z" fill="white"/>
<path opacity="0.2" d="M590 660C590 763.83 506.501 848 403.5 848C300.499 848 217 763.83 217 660C217 556.17 300.499 472 403.5 472C506.501 472 590 556.17 590 660Z" fill="white"/>
<path d="M166.96 198.608L156.232 233H152.056L143.344 206.768C143.264 206.512 143.184 206.24 143.104 205.952C143.04 205.664 142.968 205.36 142.888 205.04C142.808 205.36 142.728 205.664 142.648 205.952C142.568 206.24 142.488 206.512 142.408 206.768L133.648 233H129.472L118.744 198.608H122.608C123.024 198.608 123.368 198.712 123.64 198.92C123.928 199.128 124.112 199.392 124.192 199.712L131.296 223.616C131.408 224.048 131.512 224.512 131.608 225.008C131.72 225.504 131.824 226.032 131.92 226.592C132.032 226.032 132.144 225.504 132.256 225.008C132.384 224.496 132.52 224.032 132.664 223.616L140.752 199.712C140.848 199.44 141.032 199.192 141.304 198.968C141.592 198.728 141.936 198.608 142.336 198.608H143.68C144.096 198.608 144.432 198.712 144.688 198.92C144.944 199.128 145.136 199.392 145.264 199.712L153.328 223.616C153.472 224.032 153.6 224.48 153.712 224.96C153.84 225.44 153.96 225.944 154.072 226.472C154.152 225.944 154.24 225.44 154.336 224.96C154.432 224.48 154.536 224.032 154.648 223.616L161.776 199.712C161.856 199.424 162.032 199.168 162.304 198.944C162.592 198.72 162.936 198.608 163.336 198.608H166.96ZM184.625 218.192C184.625 217.2 184.481 216.296 184.193 215.48C183.921 214.648 183.513 213.936 182.969 213.344C182.441 212.736 181.793 212.272 181.025 211.952C180.257 211.616 179.385 211.448 178.409 211.448C176.361 211.448 174.737 212.048 173.537 213.248C172.353 214.432 171.617 216.08 171.329 218.192H184.625ZM188.081 229.592C187.553 230.232 186.921 230.792 186.185 231.272C185.449 231.736 184.657 232.12 183.809 232.424C182.977 232.728 182.113 232.952 181.217 233.096C180.321 233.256 179.433 233.336 178.553 233.336C176.873 233.336 175.321 233.056 173.897 232.496C172.489 231.92 171.265 231.088 170.225 230C169.201 228.896 168.401 227.536 167.825 225.92C167.249 224.304 166.961 222.448 166.961 220.352C166.961 218.656 167.217 217.072 167.729 215.6C168.257 214.128 169.009 212.856 169.985 211.784C170.961 210.696 172.153 209.848 173.561 209.24C174.969 208.616 176.553 208.304 178.313 208.304C179.769 208.304 181.113 208.552 182.345 209.048C183.593 209.528 184.665 210.232 185.561 211.16C186.473 212.072 187.185 213.208 187.697 214.568C188.209 215.912 188.465 217.448 188.465 219.176C188.465 219.848 188.393 220.296 188.249 220.52C188.105 220.744 187.833 220.856 187.433 220.856H171.185C171.233 222.392 171.441 223.728 171.809 224.864C172.193 226 172.721 226.952 173.393 227.72C174.065 228.472 174.865 229.04 175.793 229.424C176.721 229.792 177.761 229.976 178.913 229.976C179.985 229.976 180.905 229.856 181.673 229.616C182.457 229.36 183.129 229.088 183.689 228.8C184.249 228.512 184.713 228.248 185.081 228.008C185.465 227.752 185.793 227.624 186.065 227.624C186.417 227.624 186.689 227.76 186.881 228.032L188.081 229.592ZM198.128 197.648V233H193.856V197.648H198.128ZM221.976 213.008C221.848 213.184 221.72 213.32 221.592 213.416C221.464 213.512 221.288 213.56 221.064 213.56C220.824 213.56 220.56 213.464 220.272 213.272C219.984 213.064 219.624 212.84 219.192 212.6C218.776 212.36 218.256 212.144 217.632 211.952C217.024 211.744 216.272 211.64 215.376 211.64C214.176 211.64 213.12 211.856 212.208 212.288C211.296 212.704 210.528 213.312 209.904 214.112C209.296 214.912 208.832 215.88 208.512 217.016C208.208 218.152 208.056 219.424 208.056 220.832C208.056 222.304 208.224 223.616 208.56 224.768C208.896 225.904 209.368 226.864 209.976 227.648C210.6 228.416 211.344 229.008 212.208 229.424C213.088 229.824 214.072 230.024 215.16 230.024C216.2 230.024 217.056 229.904 217.728 229.664C218.4 229.408 218.952 229.128 219.384 228.824C219.832 228.52 220.2 228.248 220.488 228.008C220.792 227.752 221.088 227.624 221.376 227.624C221.728 227.624 222 227.76 222.192 228.032L223.392 229.592C222.864 230.248 222.264 230.808 221.592 231.272C220.92 231.736 220.192 232.128 219.408 232.448C218.64 232.752 217.832 232.976 216.984 233.12C216.136 233.264 215.272 233.336 214.392 233.336C212.872 233.336 211.456 233.056 210.144 232.496C208.848 231.936 207.72 231.128 206.76 230.072C205.8 229 205.048 227.688 204.504 226.136C203.96 224.584 203.688 222.816 203.688 220.832C203.688 219.024 203.936 217.352 204.432 215.816C204.944 214.28 205.68 212.96 206.64 211.856C207.616 210.736 208.808 209.864 210.216 209.24C211.64 208.616 213.272 208.304 215.112 208.304C216.824 208.304 218.328 208.584 219.624 209.144C220.936 209.688 222.096 210.464 223.104 211.472L221.976 213.008ZM237.804 208.304C239.58 208.304 241.18 208.6 242.604 209.192C244.028 209.784 245.244 210.624 246.252 211.712C247.26 212.8 248.028 214.12 248.556 215.672C249.1 217.208 249.372 218.928 249.372 220.832C249.372 222.752 249.1 224.48 248.556 226.016C248.028 227.552 247.26 228.864 246.252 229.952C245.244 231.04 244.028 231.88 242.604 232.472C241.18 233.048 239.58 233.336 237.804 233.336C236.012 233.336 234.396 233.048 232.956 232.472C231.532 231.88 230.316 231.04 229.308 229.952C228.3 228.864 227.524 227.552 226.98 226.016C226.452 224.48 226.188 222.752 226.188 220.832C226.188 218.928 226.452 217.208 226.98 215.672C227.524 214.12 228.3 212.8 229.308 211.712C230.316 210.624 231.532 209.784 232.956 209.192C234.396 208.6 236.012 208.304 237.804 208.304ZM237.804 230C240.204 230 241.996 229.2 243.18 227.6C244.364 225.984 244.956 223.736 244.956 220.856C244.956 217.96 244.364 215.704 243.18 214.088C241.996 212.472 240.204 211.664 237.804 211.664C236.588 211.664 235.524 211.872 234.612 212.288C233.716 212.704 232.964 213.304 232.356 214.088C231.764 214.872 231.316 215.84 231.012 216.992C230.724 218.128 230.58 219.416 230.58 220.856C230.58 223.736 231.172 225.984 232.356 227.6C233.556 229.2 235.372 230 237.804 230ZM254.79 233V208.688H257.358C257.966 208.688 258.342 208.984 258.486 209.576L258.798 212.072C259.694 210.968 260.702 210.064 261.822 209.36C262.942 208.656 264.238 208.304 265.71 208.304C267.342 208.304 268.662 208.76 269.67 209.672C270.694 210.584 271.43 211.816 271.878 213.368C272.23 212.488 272.678 211.728 273.222 211.088C273.782 210.448 274.406 209.92 275.094 209.504C275.782 209.088 276.51 208.784 277.278 208.592C278.062 208.4 278.854 208.304 279.654 208.304C280.934 208.304 282.07 208.512 283.062 208.928C284.07 209.328 284.918 209.92 285.606 210.704C286.31 211.488 286.846 212.456 287.214 213.608C287.582 214.744 287.766 216.048 287.766 217.52V233H283.47V217.52C283.47 215.616 283.054 214.176 282.222 213.2C281.39 212.208 280.19 211.712 278.622 211.712C277.918 211.712 277.246 211.84 276.606 212.096C275.982 212.336 275.43 212.696 274.95 213.176C274.47 213.656 274.086 214.264 273.798 215C273.526 215.72 273.39 216.56 273.39 217.52V233H269.094V217.52C269.094 215.568 268.702 214.112 267.918 213.152C267.134 212.192 265.99 211.712 264.486 211.712C263.43 211.712 262.454 212 261.558 212.576C260.662 213.136 259.838 213.904 259.086 214.88V233H254.79ZM310.531 218.192C310.531 217.2 310.387 216.296 310.099 215.48C309.827 214.648 309.419 213.936 308.875 213.344C308.347 212.736 307.699 212.272 306.931 211.952C306.163 211.616 305.291 211.448 304.315 211.448C302.267 211.448 300.643 212.048 299.443 213.248C298.259 214.432 297.523 216.08 297.235 218.192H310.531ZM313.987 229.592C313.459 230.232 312.827 230.792 312.091 231.272C311.355 231.736 310.563 232.12 309.715 232.424C308.883 232.728 308.019 232.952 307.123 233.096C306.227 233.256 305.339 233.336 304.459 233.336C302.779 233.336 301.227 233.056 299.803 232.496C298.395 231.92 297.171 231.088 296.131 230C295.107 228.896 294.307 227.536 293.731 225.92C293.155 224.304 292.867 222.448 292.867 220.352C292.867 218.656 293.123 217.072 293.635 215.6C294.163 214.128 294.915 212.856 295.891 211.784C296.867 210.696 298.059 209.848 299.467 209.24C300.875 208.616 302.459 208.304 304.219 208.304C305.675 208.304 307.019 208.552 308.251 209.048C309.499 209.528 310.571 210.232 311.467 211.16C312.379 212.072 313.091 213.208 313.603 214.568C314.115 215.912 314.371 217.448 314.371 219.176C314.371 219.848 314.299 220.296 314.155 220.52C314.011 220.744 313.739 220.856 313.339 220.856H297.091C297.139 222.392 297.347 223.728 297.715 224.864C298.099 226 298.627 226.952 299.299 227.72C299.971 228.472 300.771 229.04 301.699 229.424C302.627 229.792 303.667 229.976 304.819 229.976C305.891 229.976 306.811 229.856 307.579 229.616C308.363 229.36 309.035 229.088 309.595 228.8C310.155 228.512 310.619 228.248 310.987 228.008C311.371 227.752 311.699 227.624 311.971 227.624C312.323 227.624 312.595 227.76 312.787 228.032L313.987 229.592ZM344.98 229.304C346.308 229.304 347.452 229.152 348.412 228.848C349.372 228.544 350.156 228.12 350.764 227.576C351.388 227.016 351.844 226.36 352.132 225.608C352.42 224.84 352.564 224 352.564 223.088C352.564 221.312 351.932 219.912 350.668 218.888C349.404 217.848 347.508 217.328 344.98 217.328H337.54V229.304H344.98ZM337.54 202.28V214.016H343.684C344.996 214.016 346.132 213.872 347.092 213.584C348.068 213.296 348.868 212.896 349.492 212.384C350.132 211.872 350.604 211.256 350.908 210.536C351.212 209.8 351.364 209 351.364 208.136C351.364 206.104 350.756 204.624 349.54 203.696C348.324 202.752 346.436 202.28 343.876 202.28H337.54ZM343.876 198.608C345.988 198.608 347.804 198.816 349.324 199.232C350.86 199.648 352.116 200.24 353.092 201.008C354.084 201.776 354.812 202.72 355.276 203.84C355.74 204.944 355.972 206.192 355.972 207.584C355.972 208.432 355.836 209.248 355.564 210.032C355.308 210.8 354.916 211.52 354.388 212.192C353.86 212.864 353.188 213.472 352.372 214.016C351.572 214.544 350.628 214.976 349.54 215.312C352.068 215.792 353.964 216.696 355.228 218.024C356.508 219.336 357.148 221.064 357.148 223.208C357.148 224.664 356.876 225.992 356.332 227.192C355.804 228.392 355.02 229.424 353.98 230.288C352.956 231.152 351.692 231.824 350.188 232.304C348.684 232.768 346.972 233 345.052 233H332.908V198.608H343.876ZM375.732 222.056C373.764 222.12 372.084 222.28 370.692 222.536C369.316 222.776 368.188 223.096 367.308 223.496C366.444 223.896 365.812 224.368 365.412 224.912C365.028 225.456 364.836 226.064 364.836 226.736C364.836 227.376 364.94 227.928 365.148 228.392C365.356 228.856 365.636 229.24 365.988 229.544C366.356 229.832 366.78 230.048 367.26 230.192C367.756 230.32 368.284 230.384 368.844 230.384C369.596 230.384 370.284 230.312 370.908 230.168C371.532 230.008 372.116 229.784 372.66 229.496C373.22 229.208 373.748 228.864 374.244 228.464C374.756 228.064 375.252 227.608 375.732 227.096V222.056ZM361.932 212.12C363.276 210.824 364.724 209.856 366.276 209.216C367.828 208.576 369.548 208.256 371.436 208.256C372.796 208.256 374.004 208.48 375.06 208.928C376.116 209.376 377.004 210 377.724 210.8C378.444 211.6 378.988 212.568 379.356 213.704C379.724 214.84 379.908 216.088 379.908 217.448V233H378.012C377.596 233 377.276 232.936 377.052 232.808C376.828 232.664 376.652 232.392 376.524 231.992L376.044 229.688C375.404 230.28 374.78 230.808 374.172 231.272C373.564 231.72 372.924 232.104 372.252 232.424C371.58 232.728 370.86 232.96 370.092 233.12C369.34 233.296 368.5 233.384 367.572 233.384C366.628 233.384 365.74 233.256 364.908 233C364.076 232.728 363.348 232.328 362.724 231.8C362.116 231.272 361.628 230.608 361.26 229.808C360.908 228.992 360.732 228.032 360.732 226.928C360.732 225.968 360.996 225.048 361.524 224.168C362.052 223.272 362.908 222.48 364.092 221.792C365.276 221.104 366.82 220.544 368.724 220.112C370.628 219.664 372.964 219.408 375.732 219.344V217.448C375.732 215.56 375.324 214.136 374.508 213.176C373.692 212.2 372.5 211.712 370.932 211.712C369.876 211.712 368.988 211.848 368.268 212.12C367.564 212.376 366.948 212.672 366.42 213.008C365.908 213.328 365.46 213.624 365.076 213.896C364.708 214.152 364.34 214.28 363.972 214.28C363.684 214.28 363.436 214.208 363.228 214.064C363.02 213.904 362.844 213.712 362.7 213.488L361.932 212.12ZM403.335 213.008C403.207 213.184 403.079 213.32 402.951 213.416C402.823 213.512 402.647 213.56 402.423 213.56C402.183 213.56 401.919 213.464 401.631 213.272C401.343 213.064 400.983 212.84 400.551 212.6C400.135 212.36 399.615 212.144 398.991 211.952C398.383 211.744 397.631 211.64 396.735 211.64C395.535 211.64 394.479 211.856 393.567 212.288C392.655 212.704 391.887 213.312 391.263 214.112C390.655 214.912 390.191 215.88 389.871 217.016C389.567 218.152 389.415 219.424 389.415 220.832C389.415 222.304 389.583 223.616 389.919 224.768C390.255 225.904 390.727 226.864 391.335 227.648C391.959 228.416 392.703 229.008 393.567 229.424C394.447 229.824 395.431 230.024 396.519 230.024C397.559 230.024 398.415 229.904 399.087 229.664C399.759 229.408 400.311 229.128 400.743 228.824C401.191 228.52 401.559 228.248 401.847 228.008C402.151 227.752 402.447 227.624 402.735 227.624C403.087 227.624 403.359 227.76 403.551 228.032L404.751 229.592C404.223 230.248 403.623 230.808 402.951 231.272C402.279 231.736 401.551 232.128 400.767 232.448C399.999 232.752 399.191 232.976 398.343 233.12C397.495 233.264 396.631 233.336 395.751 233.336C394.231 233.336 392.815 233.056 391.503 232.496C390.207 231.936 389.079 231.128 388.119 230.072C387.159 229 386.407 227.688 385.863 226.136C385.319 224.584 385.047 222.816 385.047 220.832C385.047 219.024 385.295 217.352 385.791 215.816C386.303 214.28 387.039 212.96 387.999 211.856C388.975 210.736 390.167 209.864 391.575 209.24C392.999 208.616 394.631 208.304 396.471 208.304C398.183 208.304 399.687 208.584 400.983 209.144C402.295 209.688 403.455 210.464 404.463 211.472L403.335 213.008ZM413.633 197.648V218.456H414.737C415.057 218.456 415.321 218.416 415.529 218.336C415.753 218.24 415.985 218.056 416.225 217.784L423.905 209.552C424.129 209.28 424.361 209.072 424.601 208.928C424.857 208.768 425.193 208.688 425.609 208.688H429.473L420.521 218.216C420.089 218.76 419.625 219.184 419.129 219.488C419.417 219.68 419.673 219.904 419.897 220.16C420.137 220.4 420.361 220.68 420.569 221L430.073 233H426.257C425.889 233 425.569 232.944 425.297 232.832C425.041 232.704 424.817 232.48 424.625 232.16L416.633 222.2C416.393 221.864 416.153 221.648 415.913 221.552C415.689 221.44 415.337 221.384 414.857 221.384H413.633V233H409.337V197.648H413.633ZM438.848 198.608V212.336C438.848 213.056 438.832 213.76 438.8 214.448C438.768 215.136 438.728 215.832 438.68 216.536C438.632 217.224 438.568 217.936 438.488 218.672C438.424 219.392 438.344 220.168 438.248 221H435.368C435.272 220.168 435.184 219.392 435.104 218.672C435.04 217.936 434.984 217.224 434.936 216.536C434.888 215.832 434.848 215.136 434.816 214.448C434.784 213.76 434.768 213.056 434.768 212.336V198.608H438.848ZM433.736 230.36C433.736 229.944 433.808 229.552 433.952 229.184C434.112 228.816 434.328 228.496 434.6 228.224C434.872 227.952 435.184 227.736 435.536 227.576C435.904 227.416 436.304 227.336 436.736 227.336C437.152 227.336 437.536 227.416 437.888 227.576C438.256 227.736 438.576 227.952 438.848 228.224C439.12 228.496 439.336 228.816 439.496 229.184C439.656 229.552 439.736 229.944 439.736 230.36C439.736 230.792 439.656 231.192 439.496 231.56C439.336 231.912 439.12 232.224 438.848 232.496C438.576 232.768 438.256 232.976 437.888 233.12C437.536 233.28 437.152 233.36 436.736 233.36C436.304 233.36 435.904 233.28 435.536 233.12C435.184 232.976 434.872 232.768 434.6 232.496C434.328 232.224 434.112 231.912 433.952 231.56C433.808 231.192 433.736 230.792 433.736 230.36Z" fill="white"/>
<g clip-path="url(#clip0)">
<path d="M258.978 631.437H32.5149C29.462 631.432 26.5351 629.867 24.3764 627.083C22.2177 624.3 21.0034 620.526 21 616.59V438.306C21.0026 435.309 21.9272 432.435 23.5711 430.315C25.215 428.196 27.4438 427.003 29.7687 427H261.594C263.953 427.003 266.215 428.213 267.883 430.364C269.551 432.515 270.49 435.432 270.492 438.474V616.59C270.489 620.526 269.275 624.3 267.116 627.083C264.957 629.867 262.03 631.432 258.978 631.437Z" fill="white"/>
<path d="M258.978 631.437H32.5149C29.462 631.432 26.5351 629.867 24.3764 627.083C22.2177 624.3 21.0034 620.526 21 616.59V438.306C21.0026 435.309 21.9272 432.435 23.5711 430.315C25.215 428.196 27.4438 427.003 29.7687 427H261.594C263.953 427.003 266.215 428.213 267.883 430.364C269.551 432.515 270.49 435.432 270.492 438.474V616.59C270.489 620.526 269.275 624.3 267.116 627.083C264.957 629.867 262.03 631.432 258.978 631.437ZM29.7687 430.21C28.1039 430.213 26.5079 431.066 25.3308 432.584C24.1537 434.102 23.4916 436.16 23.4897 438.306V616.59C23.4924 619.675 24.4442 622.633 26.1361 624.814C27.8281 626.996 30.1221 628.223 32.5149 628.227H258.978C261.37 628.223 263.664 626.996 265.356 624.814C267.048 622.633 268 619.675 268.003 616.59V438.474C268.001 436.283 267.325 434.182 266.123 432.633C264.922 431.084 263.293 430.213 261.594 430.21H29.7687Z" fill="#E6E6E6"/>
<path d="M124.392 586.298H56.5353C54.8751 586.295 53.2722 585.515 52.0239 584.104C50.7757 582.692 49.9669 580.745 49.7477 578.623C49.7065 578.241 49.6867 577.856 49.6886 577.47V480.967C49.6906 478.626 50.4127 476.382 51.6962 474.727C52.9798 473.072 54.7201 472.141 56.5353 472.139H124.392C126.207 472.141 127.948 473.072 129.231 474.727C130.515 476.382 131.237 478.626 131.239 480.967V577.47C131.237 579.81 130.515 582.054 129.231 583.709C127.948 585.364 126.207 586.295 124.392 586.298ZM56.5353 476.954C55.7102 476.955 54.9192 477.378 54.3357 478.131C53.7523 478.883 53.4241 479.903 53.4232 480.967V577.47C53.4218 577.635 53.4297 577.8 53.4469 577.963C53.5421 578.934 53.9082 579.826 54.4766 580.474C55.0449 581.121 55.7768 581.48 56.5353 581.483H124.392C125.217 581.481 126.008 581.058 126.592 580.306C127.175 579.554 127.503 578.534 127.504 577.47V480.967C127.503 479.903 127.175 478.883 126.592 478.131C126.008 477.378 125.217 476.955 124.392 476.954H56.5353Z" fill="#E6E6E6"/>
<path d="M236.824 554.919H154.664C153.343 554.919 152.077 554.243 151.143 553.039C150.209 551.835 149.685 550.202 149.685 548.499C149.685 546.796 150.209 545.163 151.143 543.959C152.077 542.755 153.343 542.079 154.664 542.079H236.824C238.145 542.079 239.411 542.755 240.345 543.959C241.279 545.163 241.804 546.796 241.804 548.499C241.804 550.202 241.279 551.835 240.345 553.039C239.411 554.243 238.145 554.919 236.824 554.919Z" fill="#E6E6E6"/>
<path d="M199.479 527.633H154.664C153.343 527.633 152.077 526.957 151.143 525.753C150.209 524.549 149.685 522.916 149.685 521.213C149.685 519.51 150.209 517.877 151.143 516.673C152.077 515.469 153.343 514.793 154.664 514.793H199.479C200.799 514.793 202.066 515.469 203 516.673C203.934 517.877 204.458 519.51 204.458 521.213C204.458 522.916 203.934 524.549 203 525.753C202.066 526.957 200.799 527.633 199.479 527.633Z" fill="#E6E6E6"/>
<path d="M112.838 526.566C112.838 540.749 102.666 538.604 90.1189 538.604C77.5718 538.604 67.4004 540.749 67.4004 526.566C67.4004 512.383 72.3689 487.242 90.1189 487.242C108.481 487.242 112.838 512.383 112.838 526.566Z" fill="#2F2E41"/>
<path d="M113.756 550.436C113.318 548.805 112.445 547.429 111.292 546.552C111.069 546.376 110.836 546.223 110.594 546.094C109.583 545.552 108.472 545.402 107.395 545.661C106.319 545.921 105.324 546.579 104.533 547.555C103.742 548.532 103.189 549.784 102.941 551.159C102.693 552.535 102.762 553.973 103.138 555.299L112.188 581.823H124.107L113.756 550.436Z" fill="#3F3D56"/>
<path d="M74.2641 551.881C73.5488 551.435 72.7684 551.189 71.9743 551.16C71.1802 551.13 70.3902 551.317 69.6561 551.709C68.922 552.101 68.2605 552.688 67.7149 553.433C67.1693 554.178 66.7519 555.063 66.4902 556.03L58.0625 581.59C58.4941 581.745 58.9401 581.824 59.3882 581.823H69.9634L77.1085 560.893C77.5851 559.203 77.558 557.346 77.0324 555.68C76.5068 554.015 75.5203 552.661 74.2641 551.881Z" fill="#3F3D56"/>
<path d="M90.0433 538.58C98.4863 538.58 105.331 529.755 105.331 518.869C105.331 507.983 98.4863 499.158 90.0433 499.158C81.6003 499.158 74.7559 507.983 74.7559 518.869C74.7559 529.755 81.6003 538.58 90.0433 538.58Z" fill="#FFB8B8"/>
<path d="M111.559 546.865C111.472 546.76 111.385 546.648 111.291 546.552C110.226 545.313 108.964 544.387 107.594 543.837C106.224 543.287 104.778 543.126 103.355 543.366L75.1842 547.964C72.6036 548.376 70.2489 550.068 68.6197 552.681C66.9905 555.294 66.215 558.622 66.4578 561.96C66.8437 567.562 67.4662 574.632 68.4621 581.823H112.966L114.602 557.298C114.734 555.376 114.529 553.44 114.002 551.634C113.475 549.828 112.64 548.198 111.559 546.865Z" fill="#3F3D56"/>
<path d="M72.3799 516.936H78.4264L81.0939 507.305L81.6272 516.936H84.5172L86.0733 511.318L86.3845 516.936H107.858C107.858 511.402 106.153 506.094 103.118 502.181C100.083 498.268 95.9671 496.07 91.6751 496.07H88.563C84.2709 496.07 80.1547 498.268 77.1198 502.181C74.0849 506.094 72.3799 511.402 72.3799 516.936Z" fill="#2F2E41"/>
<path d="M330.508 616.59V438.474C330.51 435.432 331.449 432.515 333.117 430.364C334.785 428.213 337.047 427.003 339.407 427H571.231C573.556 427.003 575.785 428.196 577.429 430.315C579.073 432.435 579.998 435.309 580 438.306V616.59C579.997 620.526 578.782 624.3 576.624 627.083C574.465 629.867 571.538 631.432 568.485 631.437H342.023C338.97 631.432 336.043 629.867 333.884 627.083C331.726 624.3 330.511 620.526 330.508 616.59Z" fill="white"/>
<path d="M330.508 616.59V438.474C330.51 435.432 331.449 432.515 333.117 430.364C334.785 428.213 337.047 427.003 339.407 427H571.231C573.556 427.003 575.785 428.196 577.429 430.315C579.073 432.435 579.998 435.309 580 438.306V616.59C579.997 620.526 578.782 624.3 576.624 627.083C574.465 629.867 571.538 631.432 568.485 631.437H342.023C338.97 631.432 336.043 629.867 333.884 627.083C331.726 624.3 330.511 620.526 330.508 616.59ZM339.407 430.21C337.707 430.213 336.078 431.084 334.877 432.633C333.675 434.182 332.999 436.283 332.998 438.474V616.59C333 619.675 333.952 622.633 335.644 624.814C337.336 626.996 339.63 628.223 342.023 628.227H568.485C570.878 628.223 573.172 626.996 574.864 624.814C576.556 622.633 577.508 619.675 577.51 616.59V438.306C577.509 436.16 576.846 434.102 575.669 432.584C574.492 431.066 572.896 430.213 571.231 430.21H339.407Z" fill="#E6E6E6"/>
<path d="M469.762 577.47V480.967C469.764 478.626 470.486 476.382 471.769 474.727C473.053 473.072 474.793 472.141 476.608 472.139H544.465C546.281 472.141 548.021 473.072 549.304 474.727C550.588 476.382 551.31 478.626 551.312 480.967V577.47C551.314 577.856 551.294 578.241 551.253 578.623C551.034 580.745 550.225 582.692 548.977 584.104C547.729 585.515 546.126 586.295 544.465 586.298H476.608C474.793 586.295 473.053 585.364 471.769 583.709C470.486 582.054 469.764 579.81 469.762 577.47ZM476.608 476.954C475.783 476.955 474.992 477.378 474.409 478.131C473.825 478.883 473.497 479.903 473.496 480.967V577.47C473.497 578.534 473.825 579.554 474.409 580.306C474.992 581.058 475.783 581.481 476.608 581.483H544.465C545.224 581.48 545.956 581.121 546.524 580.474C547.092 579.826 547.458 578.934 547.554 577.963C547.571 577.8 547.579 577.635 547.577 577.47V480.967C547.577 479.903 547.248 478.883 546.665 478.131C546.081 477.378 545.29 476.955 544.465 476.954H476.608Z" fill="#E6E6E6"/>
<path d="M359.196 548.499C359.198 546.797 359.723 545.165 360.656 543.961C361.59 542.758 362.856 542.081 364.176 542.079H446.336C447.657 542.079 448.923 542.755 449.857 543.959C450.791 545.163 451.315 546.796 451.315 548.499C451.315 550.202 450.791 551.835 449.857 553.039C448.923 554.243 447.657 554.919 446.336 554.919H364.176C362.856 554.917 361.59 554.24 360.656 553.036C359.723 551.833 359.198 550.201 359.196 548.499Z" fill="#E6E6E6"/>
<path d="M359.196 521.213C359.198 519.511 359.723 517.879 360.656 516.675C361.59 515.472 362.856 514.795 364.176 514.793H408.99C410.311 514.793 411.578 515.469 412.511 516.673C413.445 517.877 413.97 519.51 413.97 521.213C413.97 522.916 413.445 524.549 412.511 525.753C411.578 526.957 410.311 527.633 408.99 527.633H364.176C362.856 527.631 361.59 526.954 360.656 525.751C359.723 524.547 359.198 522.915 359.196 521.213Z" fill="#E6E6E6"/>
<path d="M493.766 509.641C498.13 520.702 501.569 532.111 511.194 532.111C515.816 532.111 520.249 529.744 523.518 525.53C526.786 521.316 528.622 515.6 528.622 509.641C528.622 503.681 526.786 497.965 523.518 493.751C520.249 489.537 515.816 487.17 511.194 487.17C501.412 487.012 485.644 489.051 493.766 509.641Z" fill="#2F2E41"/>
<path d="M510.337 532.549C518.78 532.549 525.625 523.724 525.625 512.838C525.625 501.952 518.78 493.127 510.337 493.127C501.894 493.127 495.05 501.952 495.05 512.838C495.05 523.724 501.894 532.549 510.337 532.549Z" fill="#A0616A"/>
<path d="M531.209 548.767C530.223 547.383 529.151 546.105 528.003 544.947C522.985 539.876 516.695 537.362 510.332 537.885C510.077 537.901 509.822 537.925 509.567 537.957C505.882 538.337 502.302 539.724 499.065 542.026C495.828 544.329 493.009 547.494 490.795 551.311C488.546 555.186 486.965 559.635 486.158 564.362C485.351 569.088 485.336 573.983 486.114 578.717C486.282 579.72 486.431 580.731 486.574 581.743H537.252L537.837 576.687C538.422 571.69 538.131 566.588 536.983 561.756C535.836 556.924 533.863 552.485 531.209 548.767Z" fill="#3F3D56"/>
<path d="M538.97 554.039C538.612 551.402 537.549 549.01 535.965 547.28C534.38 545.55 532.376 544.59 530.299 544.57C530.218 544.57 530.131 544.578 530.05 544.578C529.359 544.598 528.672 544.722 528.003 544.947C526.878 545.332 525.823 546 524.899 546.913C523.975 547.825 523.2 548.964 522.618 550.264C522.036 551.563 521.659 552.998 521.509 554.486C521.358 555.974 521.437 557.486 521.741 558.935L526.527 581.743H542.636L538.97 554.039Z" fill="#3F3D56"/>
<path d="M503.523 548.061C502.915 546.523 502.045 545.184 500.977 544.144C500.221 543.408 499.375 542.838 498.475 542.459C498.107 542.297 497.73 542.168 497.348 542.074C495.266 541.566 493.112 542.034 491.275 543.394C489.437 544.753 488.037 546.915 487.327 549.489L478.563 581.742H495.195L503.678 558.02C504.244 556.455 504.524 554.743 504.497 553.017C504.47 551.291 504.136 549.595 503.523 548.061Z" fill="#3F3D56"/>
<path d="M494.115 501.698C497.609 504.803 501.755 506.455 505.998 506.433C504.484 507.786 502.761 508.7 500.948 509.112C506.589 510.672 512.419 510.714 518.073 509.236C519.33 508.976 520.543 508.439 521.658 507.649C522.214 507.248 522.698 506.702 523.08 506.044C523.461 505.387 523.73 504.633 523.871 503.833C524.247 501.065 522.574 498.551 520.836 496.856C518.175 494.302 515.106 492.541 511.853 491.703C508.599 490.865 505.242 490.969 502.024 492.009C499.922 492.71 497.817 493.893 496.452 496.069C495.087 498.245 494.683 501.6 495.983 503.84L494.115 501.698Z" fill="#2F2E41"/>
<path d="M413.731 747H187.269C184.216 746.996 181.289 745.43 179.13 742.647C176.972 739.863 175.757 736.09 175.754 732.153V553.87C175.756 550.872 176.681 547.998 178.325 545.879C179.969 543.759 182.198 542.567 184.523 542.563H416.347C418.707 542.567 420.969 543.777 422.637 545.928C424.305 548.079 425.244 550.995 425.246 554.037V732.153C425.243 736.09 424.029 739.863 421.87 742.647C419.711 745.43 416.784 746.996 413.731 747Z" fill="white"/>
<path d="M413.731 747H187.269C184.216 746.996 181.289 745.43 179.13 742.647C176.972 739.863 175.757 736.09 175.754 732.153V553.87C175.756 550.872 176.681 547.998 178.325 545.879C179.969 543.759 182.198 542.567 184.523 542.563H416.347C418.707 542.567 420.969 543.777 422.637 545.928C424.305 548.079 425.244 550.995 425.246 554.037V732.153C425.243 736.09 424.029 739.863 421.87 742.647C419.711 745.43 416.784 746.996 413.731 747ZM184.523 545.774C182.858 545.776 181.262 546.63 180.085 548.148C178.908 549.665 178.245 551.723 178.244 553.87V732.153C178.246 735.238 179.198 738.196 180.89 740.378C182.582 742.559 184.876 743.786 187.269 743.79H413.731C416.124 743.786 418.418 742.559 420.11 740.378C421.802 738.196 422.754 735.238 422.757 732.153V554.037C422.755 551.846 422.079 549.746 420.877 548.197C419.676 546.647 418.047 545.776 416.347 545.774H184.523Z" fill="#3F3D56"/>
<path d="M279.146 701.861H211.289C209.629 701.858 208.026 701.078 206.778 699.667C205.53 698.256 204.721 696.308 204.502 694.187C204.46 693.805 204.441 693.419 204.443 693.033V596.53C204.445 594.189 205.167 591.946 206.45 590.291C207.734 588.636 209.474 587.705 211.289 587.702H279.146C280.961 587.705 282.702 588.636 283.985 590.291C285.269 591.946 285.991 594.189 285.993 596.53V693.033C285.991 695.374 285.269 697.618 283.985 699.273C282.702 700.928 280.961 701.858 279.146 701.861ZM211.289 592.517C210.464 592.519 209.673 592.942 209.09 593.694C208.506 594.446 208.178 595.466 208.177 596.53V693.033C208.176 693.198 208.184 693.363 208.201 693.527C208.296 694.497 208.662 695.389 209.23 696.037C209.799 696.685 210.531 697.043 211.289 697.046H279.146C279.971 697.045 280.762 696.622 281.346 695.869C281.929 695.117 282.257 694.097 282.258 693.033V596.53C282.257 595.466 281.929 594.446 281.346 593.694C280.762 592.942 279.971 592.519 279.146 592.517H211.289Z" fill="#E6E6E6"/>
<path d="M244.232 605.345C239.815 602.695 234.392 601.827 229.897 604.289C225.402 606.751 222.338 613.061 223.791 618.646C224.45 621.179 225.951 623.669 225.366 626.226C224.916 628.195 223.346 629.494 221.804 630.418C220.262 631.342 218.576 632.119 217.461 633.678C216.346 635.236 216.113 637.919 217.506 639.128C217.965 639.526 218.539 639.715 218.983 640.135C219.363 640.532 219.636 641.072 219.766 641.679C219.896 642.287 219.876 642.931 219.708 643.523C219.337 644.714 218.724 645.754 217.934 646.533C216.352 648.291 214.263 650.304 214.754 652.8C214.936 653.467 215.24 654.067 215.641 654.551C216.041 655.034 216.526 655.385 217.055 655.575C218.152 655.983 219.291 656.177 220.433 656.15L267.094 658.045C268.634 658.194 270.183 658.083 271.701 657.713C272.438 657.54 273.14 657.172 273.763 656.632C274.386 656.093 274.915 655.394 275.319 654.579C276.212 652.447 275.626 649.82 274.522 647.829C273.419 645.837 271.857 644.266 270.566 642.438C269.276 640.609 268.22 638.327 268.448 635.964C268.63 634.072 269.597 632.437 270.292 630.718C270.987 628.999 271.39 626.851 270.49 625.269C269.223 623.041 266.179 623.243 264.737 621.166C263.65 619.599 263.86 617.344 263.752 615.323C263.491 610.462 260.881 605.872 257.166 603.74C255.277 602.695 253.222 602.243 251.171 602.423C249.12 602.604 247.131 603.41 245.369 604.776L244.232 605.345Z" fill="#2F2E41"/>
<path d="M245.958 657.579C254.401 657.579 261.246 648.754 261.246 637.868C261.246 626.982 254.401 618.157 245.958 618.157C237.515 618.157 230.671 626.982 230.671 637.868C230.671 648.754 237.515 657.579 245.958 657.579Z" fill="#A0616A"/>
<path d="M266.029 683.034C266.014 679.579 265.272 676.194 263.882 673.24C262.492 670.287 260.506 667.874 258.137 666.261C257.944 666.125 257.745 666.004 257.546 665.884C255.825 664.833 253.963 664.222 252.062 664.086L237.51 663.035C235.455 662.884 233.398 663.291 231.472 664.231C231.003 664.456 230.544 664.713 230.097 665.001C228.69 665.895 227.404 667.073 226.287 668.492C224.817 670.364 223.666 672.612 222.909 675.092C222.152 677.571 221.806 680.227 221.893 682.889L222.155 690.842L223.985 696.966H264.672C265.177 696.177 265.615 695.322 265.979 694.414C266.669 692.651 267.033 690.706 267.041 688.731C267.05 686.757 266.704 684.807 266.029 683.034Z" fill="#3F3D56"/>
<path d="M265.034 672.489C264.37 670.631 263.329 669.04 262.021 667.882C261.077 667.049 260.019 666.455 258.903 666.133C258.456 666.006 258.002 665.923 257.546 665.884C256.647 665.805 255.744 665.905 254.869 666.181C253.563 666.6 252.347 667.396 251.315 668.51C250.282 669.624 249.459 671.025 248.908 672.609C248.357 674.193 248.092 675.918 248.134 677.653C248.176 679.388 248.523 681.088 249.149 682.625L254.745 696.284L255.025 696.966H273.816L265.034 672.489Z" fill="#3F3D56"/>
<path d="M234.28 665.37C233.4 664.793 232.451 664.408 231.473 664.231C230.745 664.097 230.007 664.083 229.276 664.191C227.416 664.462 225.671 665.484 224.289 667.112C222.907 668.739 221.96 670.888 221.582 673.251L217.792 696.966H232.618L235.388 695.505L238.836 678.443C239.338 675.921 239.16 673.254 238.332 670.879C237.505 668.504 236.076 666.561 234.28 665.37Z" fill="#3F3D56"/>
<path d="M230.319 635.066C235.147 634.566 239.156 628.347 238.654 622.136C238.597 624.696 239.272 627.194 240.551 629.154C241.829 631.114 243.622 632.4 245.588 632.766C247.803 633.081 250.23 632.217 252.158 633.658C254.293 635.253 254.976 639.127 257.2 640.505C259.349 641.837 262.079 640.021 263.14 637.269C264.202 634.516 263.941 631.209 263.238 628.272C262.234 624.084 260.407 620.301 257.934 617.293C255.461 614.284 252.426 612.152 249.125 611.104C245.823 610.056 242.368 610.127 239.094 611.311C235.82 612.494 232.84 614.75 230.442 617.859C228.412 620.492 226.801 623.847 226.539 627.544C226.278 631.241 227.608 635.253 230.183 636.914L230.319 635.066Z" fill="#2F2E41"/>
<path d="M391.578 670.482H309.418C308.097 670.482 306.831 669.806 305.897 668.602C304.963 667.398 304.438 665.765 304.438 664.062C304.438 662.359 304.963 660.726 305.897 659.522C306.831 658.318 308.097 657.642 309.418 657.642H391.578C392.899 657.642 394.165 658.318 395.099 659.522C396.033 660.726 396.558 662.359 396.558 664.062C396.558 665.765 396.033 667.398 395.099 668.602C394.165 669.806 392.899 670.482 391.578 670.482Z" fill="#E6E6E6"/>
<path d="M354.233 643.197H309.418C308.097 643.197 306.831 642.52 305.897 641.316C304.963 640.112 304.438 638.479 304.438 636.776C304.438 635.074 304.963 633.441 305.897 632.237C306.831 631.033 308.097 630.356 309.418 630.356H354.233C355.553 630.356 356.82 631.033 357.754 632.237C358.687 633.441 359.212 635.074 359.212 636.776C359.212 638.479 358.687 640.112 357.754 641.316C356.82 642.52 355.553 643.197 354.233 643.197Z" fill="#6C63FF"/>
<path d="M378.279 690.083C373.93 690.093 369.761 692.328 366.689 696.297C363.616 700.266 361.891 705.644 361.891 711.252C361.891 716.86 363.616 722.238 366.689 726.207C369.761 730.176 373.929 732.411 378.279 732.421H378.279C382.628 732.411 386.796 730.176 389.869 726.207C392.941 722.238 394.667 716.86 394.667 711.252C394.667 705.644 392.941 700.266 389.869 696.297C386.796 692.328 382.628 690.093 378.279 690.083Z" fill="#6C63FF"/>
<path d="M376.721 720.044C376.289 720.045 375.868 719.864 375.522 719.53L375.501 719.509L370.986 715.056C370.564 714.638 370.289 714.022 370.219 713.342C370.15 712.663 370.293 711.975 370.616 711.431C370.94 710.887 371.417 710.531 371.944 710.441C372.472 710.35 373.005 710.534 373.427 710.95L376.352 713.841L383.262 702.217C383.423 701.947 383.622 701.721 383.851 701.551C384.079 701.381 384.33 701.271 384.591 701.227C384.853 701.182 385.118 701.204 385.372 701.292C385.627 701.38 385.865 701.531 386.074 701.738L386.075 701.739L386.032 701.815L386.076 701.739C386.498 702.157 386.774 702.773 386.843 703.453C386.913 704.133 386.77 704.82 386.447 705.365L378.319 719.032C378.13 719.347 377.889 719.602 377.612 719.776C377.335 719.951 377.031 720.042 376.723 720.041L376.721 720.044Z" fill="white"/>
</g>
<defs>
<clipPath id="clip0">
<rect width="559" height="320" fill="white" transform="translate(21 427)"/>
</clipPath>
</defs>
</svg>
